<svg viewBox="0 0 128 128" fill="none" xmlns="http://www.w3.org/2000/svg">
<path d="M63.9998 5.60397C97.0735 5.60397 123.888 32.416 123.889 65.4907C123.889 91.9293 106.765 114.362 82.9998 122.299C81.6006 122.563 80.7471 122.253 80.2419 121.792C79.7173 121.314 79.4783 120.591 79.4783 119.888C79.4783 118.896 79.4959 116.776 79.5134 113.889C79.5309 111.004 79.5476 107.357 79.5476 103.316C79.5476 98.224 77.9989 94.6395 76.0457 92.5053C82.4722 91.6992 89.0462 89.9861 94.1013 85.7553C99.454 81.2754 103.025 74.0436 103.025 62.3374C103.025 55.7343 100.715 50.3053 96.8875 46.0219C97.6382 44.0432 99.3528 37.9854 96.1824 29.9633L96.0955 29.7426L95.8699 29.6704L95.7351 30.0923C95.8663 29.6827 95.8693 29.6708 95.8689 29.6704H95.8679L95.865 29.6694C95.8631 29.6688 95.8607 29.6682 95.8582 29.6674C95.8532 29.6659 95.847 29.6637 95.8396 29.6616C95.8245 29.6573 95.8041 29.6522 95.7791 29.646C95.7285 29.6333 95.6575 29.6166 95.5662 29.6001C95.3833 29.567 95.1179 29.5321 94.7683 29.5161C94.0689 29.484 93.0335 29.5291 91.6414 29.8227C88.8877 30.4035 84.7428 31.9557 79.0378 35.7954C74.2289 34.4844 69.0949 33.827 64.0027 33.8042H63.9978C58.9021 33.827 53.7702 34.486 48.9695 35.7973C43.2581 31.9582 39.109 30.4054 36.3523 29.8247C34.9584 29.5311 33.9215 29.4859 33.2214 29.518C32.8717 29.5341 32.6066 29.569 32.4236 29.602C32.3321 29.6185 32.2613 29.6353 32.2107 29.6479C32.1855 29.6542 32.1653 29.6592 32.1501 29.6635C32.1426 29.6657 32.1357 29.6679 32.1306 29.6694L32.1218 29.6723H32.1208C32.1203 29.6725 32.1198 29.6727 32.2722 30.1489L32.1199 29.6723L31.8943 29.7446L31.8074 29.9653C28.6446 37.9884 30.3574 44.0462 31.1091 46.0249C27.2906 50.3071 24.9646 55.7359 24.9646 62.3393C24.9647 74.0181 28.5291 81.2538 33.8699 85.7485C38.9162 89.9954 45.4795 91.7315 51.8933 92.5522C50.4278 94.1678 49.2 96.6113 48.6941 99.9048C46.9734 100.645 44.149 101.559 41.1306 101.29C38.0001 101.01 34.6165 99.4589 32.0076 94.9917L32.0066 94.9897C32.0046 94.9861 32.0013 94.9813 31.9978 94.9751C31.9905 94.9623 31.9801 94.9436 31.9666 94.9204C31.9395 94.874 31.8995 94.8078 31.8474 94.7241C31.7431 94.5565 31.5885 94.3194 31.3845 94.0346C30.9769 93.4657 30.3688 92.703 29.5642 91.9262C27.9586 90.3761 25.5398 88.7398 22.3503 88.5161L22.3357 88.5151H22.322H22.321H22.2458C22.2002 88.5155 22.1353 88.5163 22.0554 88.519C21.8958 88.5245 21.6741 88.5366 21.4255 88.5639C20.9481 88.6163 20.2951 88.7319 19.8064 89.0102C19.5567 89.1525 19.3023 89.3637 19.1658 89.6772C19.0226 90.0061 19.044 90.3664 19.1941 90.7241C19.4737 91.39 20.2459 92.1584 21.6199 93.0981L21.6531 93.1206L21.6902 93.1382V93.1372C21.6909 93.1375 21.6919 93.1385 21.6931 93.1391C21.6979 93.1415 21.7059 93.1459 21.7175 93.1518C21.7415 93.1642 21.7799 93.1845 21.8308 93.2133C21.9327 93.2711 22.0862 93.3633 22.281 93.4966C22.6708 93.7631 23.2278 94.1935 23.8708 94.8383C25.0754 96.0462 26.5899 98.0128 27.8855 101.077L28.1414 101.705C28.1429 101.709 28.1443 101.714 28.1462 101.719C28.1548 101.743 28.1677 101.778 28.1843 101.821C28.2176 101.907 28.2677 102.03 28.3367 102.183C28.4745 102.488 28.6885 102.915 28.9988 103.413C29.6198 104.408 30.6279 105.691 32.1794 106.854C35.2258 109.137 40.292 110.899 48.4558 109.258C48.483 114.08 48.5339 118.507 48.5339 119.889C48.5339 120.582 48.2927 121.3 47.7664 121.781C47.2586 122.244 46.4072 122.555 45.03 122.306C21.2535 114.375 4.11206 91.9372 4.11206 65.4907C4.11222 32.4656 30.8457 5.68738 63.8455 5.60397H63.9998Z" fill="#DCCF6F" stroke="black"/>
<path d="M42.7202 103.304C42.9879 103.299 43.2109 103.372 43.353 103.468C43.4776 103.552 43.5087 103.628 43.5151 103.668L43.5161 103.702C43.5173 103.735 43.5011 103.82 43.3599 103.921C43.2204 104.021 42.9986 104.101 42.729 104.105H42.7241C42.4548 104.111 42.2318 104.038 42.0894 103.942C41.9483 103.847 41.9233 103.761 41.9214 103.724C41.9227 103.675 41.9505 103.586 42.0864 103.489C42.2254 103.389 42.4463 103.31 42.7202 103.304ZM47.2563 102.733C47.5272 102.687 47.7611 102.724 47.9175 102.795C48.0702 102.866 48.1111 102.946 48.1206 102.99H48.1216C48.1278 103.025 48.1231 103.115 47.9985 103.239C47.9063 103.331 47.766 103.419 47.5874 103.479L47.396 103.529C47.1381 103.577 46.9065 103.541 46.7476 103.468C46.5868 103.395 46.5467 103.311 46.5396 103.277C46.5336 103.231 46.5471 103.14 46.6675 103.02C46.7906 102.897 46.9954 102.782 47.2563 102.733ZM37.2769 102.545C37.4424 102.492 37.6791 102.484 37.936 102.564L37.9409 102.566C38.1981 102.644 38.3901 102.781 38.4985 102.916C38.6039 103.047 38.6036 103.136 38.5933 103.177C38.5811 103.213 38.5342 103.291 38.3677 103.344C38.2012 103.398 37.9644 103.406 37.7075 103.331C37.4514 103.253 37.2591 103.116 37.1499 102.98C37.0389 102.842 37.0424 102.749 37.0532 102.712C37.0633 102.679 37.1086 102.6 37.2769 102.545ZM33.3188 99.8863C33.4897 99.9112 33.7041 100.008 33.897 100.191L33.9028 100.197C34.1014 100.38 34.2138 100.588 34.2505 100.754C34.2861 100.917 34.2448 100.991 34.2183 101.02L34.2026 101.038C34.1817 101.061 34.1103 101.111 33.939 101.086C33.7711 101.062 33.5587 100.967 33.3677 100.783L33.3608 100.776L33.229 100.635C33.1134 100.493 33.0439 100.345 33.0161 100.218C32.9784 100.046 33.0218 99.9634 33.0474 99.9351C33.0725 99.9089 33.1482 99.8614 33.3188 99.8863ZM30.2563 96.4634C30.2684 96.4551 30.3273 96.4229 30.4673 96.4761C30.604 96.5282 30.7697 96.6492 30.9097 96.8423C31.0434 97.0417 31.0978 97.2406 31.0972 97.3882C31.0965 97.5379 31.0449 97.5876 31.0269 97.6002L31.022 97.6021C31.0074 97.6102 30.9499 97.6351 30.8198 97.5845C30.6799 97.5301 30.5119 97.4048 30.3745 97.2086C30.2397 97.0126 30.1855 96.8152 30.186 96.6695C30.1867 96.5225 30.237 96.4768 30.2524 96.4664L30.2563 96.4634ZM27.9937 93.3716C28.106 93.3972 28.2545 93.475 28.3931 93.6207H28.394C28.5316 93.7694 28.5966 93.9237 28.6118 94.0347C28.6191 94.0886 28.6134 94.1237 28.6079 94.1422C28.6052 94.1513 28.6012 94.1557 28.5991 94.1588L28.5894 94.1685C28.6032 94.1557 28.5786 94.1924 28.4595 94.1656C28.3452 94.1398 28.1972 94.0617 28.0688 93.9195L28.062 93.9117L27.9731 93.8033C27.8974 93.6948 27.8578 93.5879 27.8462 93.5035C27.8386 93.4484 27.8442 93.4107 27.8501 93.3902C27.8529 93.3806 27.8553 93.3743 27.8569 93.3716C27.8602 93.3696 27.8672 93.3671 27.8794 93.3648C27.9005 93.3608 27.9385 93.3591 27.9937 93.3716ZM26.1372 91.6519L26.0308 91.6041C26.0315 91.6007 26.032 91.5968 26.0337 91.5923C26.0364 91.5877 26.0384 91.584 26.0405 91.5816L26.1372 91.6519ZM25.3999 91.2896C25.4743 91.2762 25.596 91.2848 25.7319 91.3492L25.7417 91.3531C25.88 91.415 25.9681 91.503 26.0073 91.5689C26.0109 91.575 26.0117 91.5816 26.0142 91.5865C26.0068 91.5886 25.9985 91.5943 25.9878 91.5963C25.931 91.6065 25.8497 91.6044 25.7583 91.5767L25.6646 91.5396L25.6528 91.5347L25.5591 91.4839C25.4745 91.4305 25.4178 91.3693 25.3882 91.3199C25.3828 91.3108 25.3806 91.3021 25.3774 91.2955C25.3837 91.2938 25.3911 91.2912 25.3999 91.2896Z" fill="#DCCF6F" stroke="black"/>
</svg>
