<svg viewBox="0 0 128 128" fill="none" xmlns="http://www.w3.org/2000/svg">
<path d="M0.849976 51.73H5.78998V69.71H14.93V74.27H0.849976V51.73ZM17.11 59H21.85V74.26H17.11V59ZM19.48 51.41C20.0239 51.41 20.5556 51.5713 21.0078 51.8735C21.46 52.1756 21.8125 52.6051 22.0206 53.1076C22.2288 53.6101 22.2832 54.1631 22.1771 54.6965C22.071 55.23 21.8091 55.72 21.4245 56.1045C21.0399 56.4891 20.5499 56.7511 20.0165 56.8572C19.483 56.9633 18.9301 56.9088 18.4276 56.7007C17.9251 56.4925 17.4956 56.1401 17.1934 55.6878C16.8913 55.2356 16.73 54.7039 16.73 54.16C16.73 53.4307 17.0197 52.7312 17.5354 52.2155C18.0512 51.6997 18.7506 51.41 19.48 51.41ZM41.69 51.73H46.43V65.2L51.81 58.98H57.62L51.4 66.05L57.49 74.27H51.53L46.49 66.72H46.43V74.27H41.69V51.73ZM24.48 59H29V61.09H29.06C29.5159 60.3115 30.174 59.6709 30.9645 59.236C31.755 58.8012 32.6483 58.5883 33.55 58.62C38.36 58.62 39.24 61.78 39.24 65.89V74.27H34.54V66.84C34.54 65.07 34.54 62.84 32.07 62.84C29.6 62.84 29.22 64.77 29.22 66.76V74.31H24.48V59Z" fill="#1D1D1B"/>
<path d="M67.61 64.85C67.6196 64.4652 67.5509 64.0825 67.408 63.7251C67.2652 63.3677 67.0512 63.0431 66.779 62.7709C66.5069 62.4988 66.1822 62.2848 65.8248 62.1419C65.4674 61.9991 65.0847 61.9304 64.7 61.94C63.8712 61.8876 63.0552 62.1635 62.4283 62.7081C61.8014 63.2526 61.414 64.0221 61.35 64.85H67.61ZM71.61 71.62C70.8189 72.5681 69.8273 73.3289 68.7068 73.8476C67.5863 74.3664 66.3647 74.6302 65.13 74.62C60.39 74.62 56.59 71.46 56.59 66.55C56.59 61.64 60.39 58.49 65.13 58.49C69.56 58.49 72.34 61.65 72.34 66.55V68.04H61.34C61.4706 68.8877 61.9046 69.6591 62.5612 70.2109C63.2178 70.7626 64.0525 71.0573 64.91 71.04C65.5854 71.039 66.2496 70.867 66.8407 70.54C67.4317 70.2131 67.9303 69.7417 68.29 69.17L71.61 71.62ZM82.23 62.68C81.4559 62.6561 80.6924 62.8638 80.0371 63.2764C79.3818 63.6891 78.8646 64.288 78.5517 64.9963C78.2388 65.7047 78.1444 66.4903 78.2807 67.2527C78.4169 68.015 78.7776 68.7193 79.3166 69.2754C79.8555 69.8315 80.5482 70.214 81.3058 70.3741C82.0635 70.5342 82.8517 70.4645 83.5696 70.1739C84.2874 69.8834 84.9021 69.3852 85.3351 68.7431C85.7681 68.1011 85.9996 67.3444 86 66.57C86.0424 66.0561 85.9739 65.5391 85.7993 65.054C85.6246 64.5689 85.3477 64.127 84.9874 63.7581C84.6271 63.3893 84.1917 63.1021 83.7108 62.9161C83.2299 62.7301 82.7147 62.6496 82.2 62.68M90.4 74.26H86V72.26C85.4503 72.9931 84.74 73.5906 83.9235 74.0067C83.1071 74.4227 82.2062 74.6462 81.29 74.66C76.73 74.66 73.73 71.37 73.73 66.72C73.73 62.45 76.39 58.53 80.73 58.53C81.6425 58.4498 82.5609 58.5896 83.4083 58.9376C84.2556 59.2856 85.0072 59.8316 85.6 60.53H85.66V51.73H90.4V74.26Z" fill="#1D1D1B"/>
<path d="M124.6 47H97.36C97.0507 46.996 96.7437 47.0537 96.4568 47.1696C96.17 47.2855 95.9092 47.4574 95.6895 47.6752C95.4698 47.8931 95.2957 48.1525 95.1773 48.4383C95.0589 48.7241 94.9987 49.0306 95 49.34V76.69C95.0026 76.9968 95.0658 77.3001 95.186 77.5825C95.3061 77.8648 95.4808 78.1207 95.7001 78.3353C95.9194 78.5499 96.1789 78.7191 96.4638 78.8332C96.7486 78.9473 97.0532 79.004 97.36 79H124.6C124.91 79.008 125.218 78.9543 125.507 78.8422C125.796 78.73 126.06 78.5616 126.283 78.3467C126.506 78.1318 126.685 77.8747 126.808 77.5903C126.931 77.3059 126.996 76.9999 127 76.69V49.34C127 49.0276 126.938 48.7183 126.816 48.4304C126.695 48.1426 126.517 47.8819 126.294 47.6638C126.07 47.4457 125.805 47.2746 125.514 47.1606C125.223 47.0466 124.912 46.992 124.6 47ZM104.48 74.27H99.74V59H104.48V74.27ZM102.11 56.93C101.566 56.93 101.034 56.7687 100.582 56.4665C100.13 56.1644 99.7775 55.7349 99.5694 55.2324C99.3612 54.7299 99.3068 54.1769 99.4129 53.6435C99.519 53.1101 99.7809 52.62 100.165 52.2355C100.55 51.8509 101.04 51.5889 101.574 51.4828C102.107 51.3767 102.66 51.4312 103.162 51.6393C103.665 51.8475 104.094 52.1999 104.397 52.6522C104.699 53.1044 104.86 53.6361 104.86 54.18C104.86 54.9093 104.57 55.6088 104.055 56.1245C103.539 56.6403 102.839 56.93 102.11 56.93ZM122.24 74.27H117.5V66.85C117.5 65.08 117.5 62.85 115.04 62.85C112.58 62.85 112.19 64.78 112.19 66.77V74.32H107.45V59H112V61.1H112.06C112.517 60.3234 113.176 59.6848 113.966 59.2517C114.757 58.8187 115.649 58.6073 116.55 58.64C121.35 58.64 122.24 61.8 122.24 65.91V74.27Z" fill="black"/>
</svg>
